<?xml version="1.0" encoding="UTF-8" standalone="no"?>
<!-- Created with Inkscape (http://www.inkscape.org/) -->

<svg
   xmlns:dc="http://purl.org/dc/elements/1.1/"
   xmlns:cc="http://creativecommons.org/ns#"
   xmlns:rdf="http://www.w3.org/1999/02/22-rdf-syntax-ns#"
   xmlns:svg="http://www.w3.org/2000/svg"
   xmlns="http://www.w3.org/2000/svg"
   xmlns:xlink="http://www.w3.org/1999/xlink"
   version="1.2"
   width="1280"
   height="1920"
   id="svg5949">
  <defs
     id="defs5951">
    <linearGradient
       id="linearGradient5383">
      <stop
         id="stop5385"
         style="stop-color:#000000;stop-opacity:1"
         offset="0" />
      <stop
         id="stop5387"
         style="stop-color:#000000;stop-opacity:0"
         offset="1" />
    </linearGradient>
    <linearGradient
       id="linearGradient5353">
      <stop
         id="stop5361"
         style="stop-color:#6e154f;stop-opacity:0"
         offset="0" />
      <stop
         id="stop5357"
         style="stop-color:#000000;stop-opacity:1"
         offset="1" />
    </linearGradient>
    <linearGradient
       id="linearGradient6015">
      <stop
         id="stop6017"
         style="stop-color:#6e154f;stop-opacity:0"
         offset="0" />
      <stop
         id="stop6019"
         style="stop-color:#000000;stop-opacity:1"
         offset="1" />
    </linearGradient>
    <linearGradient
       id="linearGradient6022">
      <stop
         id="stop6024"
         style="stop-color:#6e154f;stop-opacity:0"
         offset="0" />
      <stop
         id="stop6026"
         style="stop-color:#000000;stop-opacity:1"
         offset="1" />
    </linearGradient>
    <linearGradient
       id="linearGradient6036">
      <stop
         id="stop6038"
         style="stop-color:#6e154f;stop-opacity:0"
         offset="0" />
      <stop
         id="stop6040"
         style="stop-color:#000000;stop-opacity:1"
         offset="1" />
    </linearGradient>
    <linearGradient
       x1="87.344521"
       y1="75.148567"
       x2="88.773094"
       y2="162.22554"
       id="linearGradient6277"
       xlink:href="#linearGradient5353"
       gradientUnits="userSpaceOnUse"
       gradientTransform="matrix(0.52588322,0,0,0.53312728,167.33305,386.44578)" />
    <linearGradient
       x1="238.71054"
       y1="174.27927"
       x2="238.45801"
       y2="104.46349"
       id="linearGradient6279"
       xlink:href="#linearGradient5383"
       gradientUnits="userSpaceOnUse"
       gradientTransform="matrix(0.52584715,0.00616004,-0.00616004,0.52584715,167.65257,385.28288)" />
    <linearGradient
       x1="521.15741"
       y1="66.667686"
       x2="521.15741"
       y2="177.28041"
       id="linearGradient6281"
       xlink:href="#linearGradient5353"
       gradientUnits="userSpaceOnUse"
       gradientTransform="matrix(0.52588322,0,0,0.51340957,167.75521,389.59146)" />
    <linearGradient
       x1="1572.3202"
       y1="-101.27197"
       x2="1572.3202"
       y2="94.842918"
       id="linearGradient6283"
       xlink:href="#linearGradient5353"
       gradientUnits="userSpaceOnUse"
       gradientTransform="matrix(0.20542301,0,0,0.20542301,172.74301,455.13701)" />
    <linearGradient
       x1="724.69421"
       y1="70.747925"
       x2="724.69421"
       y2="164.82831"
       id="linearGradient6285"
       xlink:href="#linearGradient5353"
       gradientUnits="userSpaceOnUse"
       gradientTransform="matrix(0.52632378,0,0,0.52755822,167.57879,387.54381)" />
    <linearGradient
       x1="257.81677"
       y1="170.83466"
       x2="228.97816"
       y2="104.89025"
       id="linearGradient6287"
       xlink:href="#linearGradient5383"
       gradientUnits="userSpaceOnUse"
       gradientTransform="matrix(0.48905936,0.20135629,-0.20135629,0.48905936,291.11362,345.28759)" />
  </defs>
  <metadata
     id="metadata5954">
    <rdf:RDF>
      <cc:Work
         rdf:about="">
        <dc:format>image/svg+xml</dc:format>
        <dc:type
           rdf:resource="http://purl.org/dc/dcmitype/StillImage" />
        <dc:title></dc:title>
      </cc:Work>
    </rdf:RDF>
  </metadata>
  <g
     transform="translate(-0.02792959,866.91469)"
     id="layer1">
    <rect
       width="1278.6394"
       height="1919.3181"
       ry="0"
       x="0.027929587"
       y="-866.23285"
       id="rect5931"
       style="fill:#000000;fill-opacity:1;fill-rule:nonzero;stroke:none" />
    <g
       transform="matrix(-1.7180706,0,0,1.7180706,1300.5217,-890.39635)"
       id="g5924"
       style="fill:#ffffff">
      <path
         d="m 292.73424,988.79961 c -2.73196,-0.30611 -14.74635,-1.94988 -26.69866,-3.65278 -54.7945,-7.80692 -83.3457,-16.79773 -99.51852,-31.33848 -9.46371,-8.50869 -12.56643,-14.78715 -13.23508,-26.78165 -0.30904,-5.54369 -1.28762,-11.50658 -2.17462,-13.25086 -2.6375,-5.18663 -5.52621,-23.05582 -5.52621,-34.18442 0,-14.7823 3.18663,-27.63604 10.28806,-41.49835 5.5873,-10.90666 6.17314,-12.92181 7.76185,-26.69866 1.94517,-16.86793 4.78597,-54.85402 6.91867,-92.51396 1.46546,-25.87753 1.283,-35.38883 -1.97714,-103.06926 -1.00344,-20.83115 -1.83713,-50.02508 -1.85264,-64.87541 l -0.0282,-27.00057 -18.93742,0.63851 c -10.41558,0.35118 -22.85624,0.88781 -27.64591,1.19251 -10.98951,0.69914 -34.872248,-1.21284 -47.464683,-3.79986 -9.8264,-2.01876 -25.380383,-8.06803 -29.0699,-11.30589 -2.888975,-2.53531 -3.402557,-6.68875 -2.175399,-17.59282 0.588521,-5.22938 1.132784,-11.1844 1.209472,-13.23337 0.07669,-2.04897 1.179775,-21.04847 2.451302,-42.22114 2.926513,-48.73043 4.640137,-85.73882 6.152479,-132.87241 0.745161,-23.22366 1.862162,-40.29383 2.965921,-45.32562 4.813992,-21.94596 14.683971,-39.8381 31.176354,-56.51602 18.848024,-19.06005 42.133874,-32.68494 76.370594,-44.68553 10.01049,-3.50886 22.01722,-8.88332 29.80316,-13.34052 19.24088,-11.0148 58.7998,-36.33021 69.93697,-44.75562 5.34037,-4.040055 9.85656,-7.151345 10.03597,-6.913965 0.17942,0.23737 1.62937,3.78444 3.22211,7.882385 4.75411,12.23173 12.18062,23.95324 21.13502,33.35809 18.895,19.84551 40.04386,26.85036 73.43494,24.32288 42.80065,-3.23973 62.65553,-16.19721 80.77385,-52.71379 3.04989,-6.146895 7.14386,-15.087841 9.09772,-19.868764 1.95386,-4.780924 3.63736,-8.838257 3.74114,-9.016297 0.36309,-0.622965 11.22779,3.579142 22.30755,8.627824 6.1469,2.800939 30.25008,15.095357 53.56262,27.320917 23.31254,12.22557 53.23567,27.12774 66.49585,33.11595 29.3844,13.2698 42.15216,20.70272 53.3926,31.0832 8.09493,7.47561 9.27867,9.31441 20.61094,32.01642 l 12.02275,24.0853 0.87198,18.2764 c 0.69156,14.49498 1.7826,22.09288 5.27318,36.7221 9.32828,39.09527 21.63544,79.79451 30.09571,99.52515 l 4.79222,11.17619 0.39104,28.6508 0.39103,28.65081 -14.05081,7.61315 c -18.62729,10.09283 -38.33285,19.37721 -47.852,22.54572 -6.7891,2.2598 -33.60511,7.11248 -52.00722,9.41135 l -6.33332,0.79119 -0.79462,20.70918 c -2.30363,60.03482 -3.46648,124.44035 -3.08688,170.96678 0.48289,59.18444 -0.33936,53.75978 12.39911,81.80202 12.52089,27.5633 12.29818,26.62474 14.1804,59.76296 0.93103,16.39175 1.72009,38.1853 1.75348,48.43013 0.0334,10.24484 0.90046,24.77388 1.92682,32.28676 3.49374,25.57399 3.59724,28.43841 1.16176,32.15542 -5.26506,8.0355 -21.26676,15.68943 -47.16019,22.55763 -28.91352,7.66929 -67.25422,11.64068 -112.94721,11.69933 -12.84895,0.0165 -27.96159,1.1661 -49.05103,3.73131 -16.76427,2.0391 -39.14203,4.5717 -49.72836,5.62798 -18.68386,1.86422 -78.75922,3.41344 -88.78857,2.28967 z"
         id="path5902"
         style="fill:#ffffff" />
      <path
         d="m 293.97604,988.82209 c -2.73196,-0.29255 -15.01051,-1.95358 -27.28566,-3.69119 -59.01348,-8.35364 -89.11841,-18.58555 -104.37717,-35.47517 -6.15477,-6.81259 -8.27951,-12.2471 -9.38953,-24.01588 -0.51535,-5.46392 -2.11624,-14.12546 -3.55752,-19.24788 -6.93848,-24.65979 -3.71527,-51.08163 8.82627,-72.35213 4.0951,-6.94529 5.22234,-13.40662 7.85035,-44.9978 5.98387,-71.93169 6.61182,-104.79017 3.1445,-164.53826 -0.654,-11.26932 -1.57418,-38.57088 -2.04486,-60.67015 l -0.8558,-40.18048 -11.28408,0.81986 c -6.20625,0.45094 -22.73967,0.86983 -36.74095,0.93089 -29.707852,0.12955 -48.852817,-2.60768 -63.855112,-9.12959 -13.943002,-6.0614 -14.87608,-7.63338 -13.073649,-22.02549 0.565202,-4.51305 1.351162,-13.79363 1.746578,-20.62352 0.395415,-6.82989 1.255974,-20.52072 1.912352,-30.42406 2.222544,-33.53338 4.901404,-89.84777 6.232098,-131.00971 0.728635,-22.53863 1.849083,-44.33219 2.489886,-48.43013 4.797312,-30.67881 23.517019,-58.36664 53.187617,-78.6684 13.72277,-9.38966 37.01655,-20.70142 54.20227,-26.32134 6.82989,-2.23345 15.65888,-5.67082 19.61998,-7.6386 14.3757,-7.14152 62.72339,-37.43677 79.33286,-49.71096 l 11.30781,-8.356315 3.88558,9.598115 c 6.43904,15.90573 17.4876,31.12539 29.28146,40.33596 16.97303,13.25528 36.06591,17.94401 64.33239,15.79841 20.67948,-1.56969 31.42858,-4.04077 43.52847,-10.00663 18.35009,-9.04752 30.55447,-24.48817 43.75707,-55.360205 3.45711,-8.083879 6.66494,-15.093224 7.1285,-15.576326 1.9497,-2.031847 18.84679,6.092202 102.0312,49.056181 12.63529,6.52601 31.7233,15.81993 42.41779,20.65314 21.78168,9.84389 31.64786,15.16817 42.63248,23.00664 12.71081,9.07025 16.95255,14.79643 29.32616,39.58924 l 11.49109,23.02452 0.89309,17.77188 c 0.91179,18.14428 1.96794,24.36613 8.6606,51.01993 9.29535,37.01919 19.74003,70.2116 28.02741,89.06908 3.51218,7.99178 3.55145,8.35446 3.96722,36.63305 l 0.41993,28.56136 -15.30853,8.33446 c -18.99224,10.34001 -36.40705,18.45258 -46.9744,21.88271 -8.0824,2.62352 -27.2753,6.24128 -47.31309,8.91826 l -10.68005,1.42681 -0.79161,20.69822 c -2.37264,62.03727 -3.47965,123.5056 -3.07881,170.9558 l 0.45108,53.39732 3.86097,9.93439 c 2.12354,5.46391 6.66772,16.09852 10.09817,23.63247 11.65712,25.60131 11.2565,22.38329 14.44975,116.06983 0.29099,8.53736 1.48365,22.03457 2.65035,29.99382 1.16669,7.95924 1.77569,15.8482 1.35333,17.53101 -2.73529,10.89828 -29.72274,23.26848 -66.61855,30.53584 -24.99843,4.92396 -58.15455,7.55043 -95.93518,7.59957 -12.68873,0.0165 -27.58045,1.16696 -48.43013,3.74144 -16.55903,2.04468 -39.32769,4.5883 -50.59701,5.65248 -19.83156,1.87273 -76.19533,3.36013 -86.30497,2.27753 z"
         id="path5900"
         style="fill:#ffffff" />
      <path
         d="m 297.70143,988.74841 c -12.37028,-1.06228 -37.55719,-4.46357 -54.01822,-7.29472 -48.88124,-8.40714 -77.77779,-21.65466 -86.8816,-39.83057 -2.06643,-4.12567 -3.28729,-9.20747 -3.83985,-15.98326 -0.44557,-5.46392 -2.08712,-14.40486 -3.64787,-19.86877 -2.22374,-7.78487 -2.86492,-13.29301 -2.96331,-25.45687 -0.1461,-18.06013 2.06854,-27.01906 11.05099,-44.70473 5.96644,-11.74741 6.20834,-13.25108 9.88879,-61.46901 4.89456,-64.12415 5.25003,-92.47241 1.89193,-150.8785 -0.64795,-11.26931 -1.56124,-38.11969 -2.02956,-59.66747 l -0.8515,-39.17783 -41.09454,0.0612 c -38.254353,0.0569 -41.892805,-0.12912 -52.644382,-2.69164 -13.512236,-3.22049 -25.978403,-8.34172 -29.277558,-12.02751 -2.104408,-2.35104 -2.242468,-3.87563 -1.416618,-15.64378 0.503264,-7.17138 1.093611,-16.67113 1.311882,-21.11056 0.218271,-4.43944 0.731787,-12.82158 1.141145,-18.62697 1.865805,-26.46031 4.403505,-75.85712 5.645933,-109.89914 2.666043,-73.04846 3.238979,-80.93722 6.745744,-92.88227 6.067584,-20.66793 15.065252,-35.05399 32.213081,-51.50439 18.035303,-17.30177 40.438723,-30.11265 71.797333,-41.05566 7.98666,-2.78705 17.86742,-6.75653 21.95726,-8.82106 15.16602,-7.65578 62.16052,-37.262 77.38321,-48.7509 5.25285,-3.964435 10.06756,-7.208065 10.69935,-7.208065 0.6318,0 2.32641,3.21315 3.7658,7.140345 7.71146,21.0396 24.89915,40.95834 43.05524,49.89656 13.35532,6.57479 21.52364,8.14247 41.58633,7.98128 52.48259,-0.42164 75.92141,-16.24588 96.88455,-65.409655 3.54848,-8.322053 6.8108,-15.517347 7.2496,-15.989539 1.85749,-1.998877 31.31617,12.041272 85.56964,40.782904 17.25599,9.14163 39.60836,20.3086 49.67193,24.81549 36.84502,16.50072 54.02427,26.60404 63.88492,37.57146 3.48423,3.8753 9.65458,14.39172 17.11242,29.16552 l 11.66339,23.10489 0.25564,14.6022 c 0.17821,10.18039 1.26374,19.45369 3.58476,30.62336 6.51222,31.3394 23.90452,90.72305 31.52043,107.6222 5.41512,12.01579 6.38399,18.88869 6.38399,45.28675 l 0,24.13835 -5.27765,3.37942 c -10.04849,6.43431 -45.54781,23.73774 -55.19516,26.90377 -10.08251,3.30883 -23.12958,5.81587 -45.67993,8.77756 -7.29655,0.9583 -13.47686,1.95279 -13.73404,2.20997 -0.84647,0.84647 -2.93492,64.98376 -4.41921,135.71669 -1.63179,77.76091 -0.80391,103.6694 3.72348,116.52683 1.40382,3.98672 6.20407,15.51689 10.66726,25.62258 4.46317,10.10569 8.90877,21.93168 9.87911,26.27995 1.7544,7.86175 4.43727,58.74754 4.47609,84.89746 0.0112,7.51288 0.8346,19.52729 1.82989,26.69867 3.91813,28.23153 3.99689,26.29629 -1.309,32.16926 -10.43947,11.55525 -43.3753,22.72291 -82.63105,28.018 -7.80319,1.05253 -32.34892,2.49162 -54.54606,3.19795 -27.66594,0.88035 -48.36449,2.23736 -65.8153,4.31489 -67.07514,7.98535 -111.06394,10.69335 -137.21871,8.44734 z"
         id="path5898"
         style="fill:#ffffff" />
      <path
         d="m 297.70143,988.72811 c -3.41494,-0.22916 -16.54696,-1.84086 -29.18225,-3.58153 -56.01162,-7.7163 -87.08936,-17.57812 -102.98032,-32.67853 -8.35856,-7.94273 -11.43181,-14.64846 -12.57995,-27.4491 -0.52071,-5.80541 -1.83379,-13.6065 -2.91796,-17.33575 -7.06401,-24.29831 -4.45169,-49.84545 7.30642,-71.45282 5.28121,-9.70508 5.45066,-10.37868 7.34072,-29.18226 5.54457,-55.16079 8.72493,-120.10742 7.0126,-143.20514 -1.88183,-25.38427 -5.00133,-101.51041 -5.00545,-122.14985 l -0.004,-17.61624 -35.7017,0.69961 c -32.625725,0.63934 -37.017112,0.47347 -50.969218,-1.92506 -16.957108,-2.91515 -35.383769,-9.86404 -37.71684,-14.22342 -0.86392,-1.61426 -1.074057,-6.18671 -0.577288,-12.56145 3.515172,-45.10806 7.644038,-121.57948 10.028402,-185.73773 1.439014,-38.72087 2.147612,-48.13675 4.205348,-55.88092 7.556115,-28.43701 25.385659,-51.87299 53.818876,-70.74203 15.75211,-10.45352 29.40812,-16.92195 53.31608,-25.25415 9.23632,-3.21897 20.85555,-8.50223 28.93766,-13.15794 18.50368,-10.65909 59.28192,-36.79346 69.61307,-44.61435 8.65446,-6.551595 10.59846,-7.478655 10.59846,-5.054225 0,3.25464 10.42569,23.204745 16.18992,30.980265 14.57104,19.65523 34.82572,30.93161 59.21265,32.9654 21.4317,1.78734 54.11135,-3.95696 68.12494,-11.97473 17.39543,-9.95265 31.37586,-29.8505 44.72892,-63.661077 2.20412,-5.580902 2.59849,-5.927923 5.9853,-5.266536 6.66109,1.300804 28.28213,11.733192 73.36578,35.399803 24.58761,12.90724 52.37853,26.84972 61.75761,30.98329 50.86609,22.41785 59.11121,29.07938 75.77932,61.22479 12.709,24.51005 14.42053,29.95427 14.36312,45.68789 -0.0478,13.09228 2.05236,24.37459 10.78884,57.96001 8.19067,31.48711 17.25932,60.80067 22.87881,73.95342 6.99336,16.36845 7.64205,20.67387 7.25349,48.14211 l -0.34246,24.20987 -13.65978,7.68569 c -18.85712,10.60996 -42.55472,21.21741 -53.863,24.11001 -5.20779,1.33212 -18.9086,3.79274 -30.44625,5.46803 -11.53765,1.6753 -21.1548,3.22326 -21.37146,3.43993 -0.67134,0.67134 -2.86114,65.71313 -4.33679,128.81219 -1.55852,66.64247 -0.83812,106.98911 2.11494,118.44776 1.0357,4.01876 6.00473,16.65675 11.0423,28.08444 13.52505,30.6815 12.50724,23.63779 15.52154,107.41553 0.61434,17.07474 1.97347,36.35365 3.02028,42.84204 2.60085,16.12067 2.53584,16.72718 -2.37567,22.16364 -7.9227,8.76948 -26.84244,16.63622 -55.2828,22.98633 -23.54537,5.25717 -40.79734,6.98033 -83.20048,8.31025 -30.31022,0.95063 -47.93325,2.16701 -70.7825,4.88553 -64.56953,7.68226 -100.97329,9.86272 -131.00971,7.84701 z"
         id="path5896"
         style="fill:#ffffff" />
      <path
         d="m 298.32233,988.29701 c -27.63316,-1.91657 -70.07132,-9.01441 -92.51396,-15.47308 -16.05498,-4.6204 -32.69317,-13.0192 -40.11795,-20.25117 -8.67321,-8.44798 -11.3382,-14.32771 -12.66863,-27.95061 -0.61235,-6.27015 -2.04182,-14.47374 -3.17662,-18.23018 -1.18726,-3.93012 -2.32908,-13.24652 -2.68936,-21.94317 -0.80479,-19.42655 1.42144,-30.01148 9.71834,-46.20723 5.84774,-11.41493 6.12162,-12.42741 7.91782,-29.26993 2.2728,-21.31166 5.01108,-59.02642 6.98133,-96.15516 1.13053,-21.30471 1.1365,-33.33895 0.0256,-51.53462 -2.09025,-34.23501 -5.09055,-107.01726 -5.09946,-123.70395 l -0.007,-14.28068 -18.31655,0.99876 c -10.0743,0.54933 -28.37531,0.74136 -40.66911,0.42674 -26.063173,-0.667 -40.964697,-3.35984 -55.66578,-10.05934 -11.544653,-5.26106 -11.684204,-5.63575 -9.705936,-26.0594 2.770711,-28.60482 6.977997,-104.06667 8.831758,-158.40638 2.474535,-72.5366 2.857702,-75.39638 12.894595,-96.23936 16.532271,-34.33153 47.812263,-57.67227 102.479243,-76.46876 12.18829,-4.19077 22.67935,-9.7604 47.33986,-25.13237 25.43946,-15.85752 36.51409,-23.18358 47.09612,-31.1549 5.07169,-3.820445 9.54216,-6.938065 9.93439,-6.928045 0.39221,0.0101 2.02492,3.425921 3.62824,7.590865 75.56324,23.06229 155.69508,55.02781 191.6012,-20.265377 1.49272,-4.251085 -2.97208,-3.611892 0.0503,-3.00741 1.85935,0.371873 9.69415,3.556835 17.41063,7.077694 12.6152,5.756028 23.37231,11.275428 79.87597,40.983853 8.89574,4.67719 28.17465,13.98166 42.84204,20.6766 14.66739,6.69494 31.65449,15.42457 37.74913,19.39919 17.69169,11.53763 21.92658,16.80101 35.24269,43.80186 l 11.55349,23.4268 0.40431,15.52247 c 0.44562,17.10851 2.95984,30.32103 12.64217,66.43621 8.04809,30.01935 16.03707,55.33572 21.56249,68.32953 6.41838,15.09374 7.47846,21.97891 7.47846,48.57279 l 0,22.69042 -8.38214,4.87544 c -11.02609,6.41327 -36.37132,19.06065 -46.2044,23.05618 -9.77366,3.9714 -26.79488,7.64166 -48.47369,10.45231 l -16.75523,2.17231 -0.7792,5.54397 c -1.60896,11.44787 -4.1485,118.25863 -4.17673,175.67033 -0.0337,68.38461 -0.65881,63.76301 12.54853,92.76671 12.4453,27.3302 13.02162,29.60124 14.27415,56.24907 0.60994,12.97679 1.38326,35.04975 1.71848,49.05103 0.36478,15.23567 1.61507,32.75782 3.11397,43.64061 1.67463,12.15865 2.12787,19.15355 1.36791,21.11057 -2.58422,6.65472 -13.351,13.63851 -29.99287,19.45461 -31.49466,11.00696 -69.59995,16.34411 -117.17482,16.41191 -23.89906,0.034 -31.03029,0.57671 -72.15442,5.49058 -51.99693,6.21303 -96.8302,8.69555 -123.55892,6.84171 z"
         id="path5894"
         style="fill:#ffffff" />
    </g>
    <g
       transform="matrix(1.7180706,0,0,1.7180706,3.4509712,-862.01278)"
       id="g6230">
      <flowRoot
         transform="matrix(2.4379706,0,0,2.4379706,-379.27856,-1273.7391)"
         id="flowRoot5460"
         xml:space="preserve"
         style="font-size:40px;font-style:normal;font-variant:normal;font-weight:bold;font-stretch:normal;line-height:125%;letter-spacing:0px;word-spacing:0px;fill:#42002f;fill-opacity:1;stroke:none;font-family:Aharoni;-inkscape-font-specification:Aharoni Bold"><flowRegion
           id="flowRegion5462"><rect
             width="174.28572"
             height="105.71429"
             x="228.57143"
             y="680.93359"
             id="rect5464"
             style="font-style:normal;font-variant:normal;font-weight:bold;font-stretch:normal;fill:#42002f;fill-opacity:1;font-family:Aharoni;-inkscape-font-specification:Aharoni Bold" /></flowRegion><flowPara
           id="flowPara5466"
           style="font-style:normal;font-variant:normal;font-weight:bold;font-stretch:normal;fill:#42002f;fill-opacity:1;font-family:Aharoni;-inkscape-font-specification:Aharoni Bold">D</flowPara></flowRoot>      <text
         x="426.51633"
         y="475.8718"
         id="text5468"
         xml:space="preserve"
         style="font-size:97.51881409px;font-style:normal;font-variant:normal;font-weight:bold;font-stretch:normal;line-height:125%;letter-spacing:0px;word-spacing:0px;fill:#42002f;fill-opacity:1;stroke:none;font-family:Aharoni;-inkscape-font-specification:Aharoni Bold"><tspan
           x="426.51633"
           y="475.8718"
           id="tspan5470">E</tspan></text>
      <text
         x="477.29022"
         y="475.38132"
         id="text5472"
         xml:space="preserve"
         style="font-size:97.51881409px;font-style:normal;font-variant:normal;font-weight:bold;font-stretch:normal;line-height:125%;letter-spacing:0px;word-spacing:0px;fill:#42002f;fill-opacity:1;stroke:none;font-family:Aharoni;-inkscape-font-specification:Aharoni Bold"><tspan
           x="477.29022"
           y="475.38132"
           id="tspan5474">N</tspan></text>
      <g
         transform="matrix(0.50045015,-0.81023777,0.81023777,0.50045015,-1245.9516,301.61376)"
         id="g5476"
         style="fill:#666666;fill-opacity:1">
        <text
           x="680.29034"
           y="1486.7386"
           id="text5478"
           xml:space="preserve"
           style="font-size:102.40006256px;font-style:normal;font-variant:normal;font-weight:bold;font-stretch:normal;line-height:125%;letter-spacing:0px;word-spacing:0px;fill:#666666;fill-opacity:1;stroke:none;font-family:Aharoni;-inkscape-font-specification:Aharoni Bold"><tspan
             x="680.29034"
             y="1486.7386"
             id="tspan5480">O</tspan></text>
        <path
           d="m 750.99653,1428.7179 7.82237,20.3996 11.42351,-8.4245 -5.97154,-14.1025 z"
           id="path5482"
           style="fill:#666666;fill-opacity:1;stroke:none" />
        <path
           d="m 711.27471,1417.7384 21.8286,0.9142 -3.2,-13.8285 -15.31429,-0.1145 z"
           id="path5484"
           style="fill:#666666;fill-opacity:1;stroke:none" />
        <path
           d="m 686.06059,1445.2474 11.12127,-18.8056 -13.69923,-3.7146 -7.33795,13.4421 z"
           id="path5486"
           style="fill:#666666;fill-opacity:1;stroke:none" />
        <path
           d="m 696.7202,1479.987 -10.93037,-18.9172 -9.95797,10.1148 8.11314,12.989 z"
           id="path5488"
           style="fill:#666666;fill-opacity:1;stroke:none" />
        <path
           d="m 732.29696,1487.2179 -21.84454,-0.3736 3.54133,13.745 15.31242,-0.2646 z"
           id="path5490"
           style="fill:#666666;fill-opacity:1;stroke:none" />
        <path
           d="m 756.73006,1464.5668 -12.6097,17.8418 13.35289,4.8133 8.40386,-12.8028 z"
           id="path5492"
           style="fill:#666666;fill-opacity:1;stroke:none" />
      </g>
      <text
         x="345.81927"
         y="476.07718"
         id="text5496"
         xml:space="preserve"
         style="font-size:97.51883698px;font-style:normal;font-variant:normal;font-weight:bold;font-stretch:normal;line-height:125%;letter-spacing:0px;word-spacing:0px;fill:#42002f;fill-opacity:1;stroke:none;font-family:Aharoni;-inkscape-font-specification:Aharoni Bold"><tspan
           x="345.81927"
           y="476.07718"
           id="tspan5498">G</tspan></text>
      <g
         transform="matrix(1.0304917,0.55370363,-0.55370363,1.0304917,311.36242,-1540.6877)"
         id="g5517"
         style="fill:#666666;fill-opacity:1">
        <text
           x="680.29034"
           y="1486.7386"
           id="text5519"
           xml:space="preserve"
           style="font-size:102.40006256px;font-style:normal;font-variant:normal;font-weight:bold;font-stretch:normal;line-height:125%;letter-spacing:0px;word-spacing:0px;fill:#666666;fill-opacity:1;stroke:none;font-family:Aharoni;-inkscape-font-specification:Aharoni Bold"><tspan
             x="680.29034"
             y="1486.7386"
             id="tspan5521">O</tspan></text>
        <path
           d="m 750.99653,1428.7179 7.82237,20.3996 11.42351,-8.4245 -5.97154,-14.1025 z"
           id="path5523"
           style="fill:#666666;fill-opacity:1;stroke:none" />
        <path
           d="m 711.27471,1417.7384 21.8286,0.9142 -3.2,-13.8285 -15.31429,-0.1145 z"
           id="path5525"
           style="fill:#666666;fill-opacity:1;stroke:none" />
        <path
           d="m 686.06059,1445.2474 11.12127,-18.8056 -13.69923,-3.7146 -7.33795,13.4421 z"
           id="path5527"
           style="fill:#666666;fill-opacity:1;stroke:none" />
        <path
           d="m 696.7202,1479.987 -10.93037,-18.9172 -9.95797,10.1148 8.11314,12.989 z"
           id="path5529"
           style="fill:#666666;fill-opacity:1;stroke:none" />
        <path
           d="m 732.29696,1487.2179 -21.84454,-0.3736 3.54133,13.745 15.31242,-0.2646 z"
           id="path5531"
           style="fill:#666666;fill-opacity:1;stroke:none" />
        <path
           d="m 756.73006,1464.5668 -12.6097,17.8418 13.35289,4.8133 8.40386,-12.8028 z"
           id="path5533"
           style="fill:#666666;fill-opacity:1;stroke:none" />
      </g>
      <g
         transform="matrix(0.92852849,1.9784459,-1.9784459,0.92852849,2594.0109,-2489.2643)"
         id="g5535"
         style="fill:#666666;fill-opacity:1">
        <text
           x="680.29034"
           y="1486.7386"
           id="text5537"
           xml:space="preserve"
           style="font-size:102.40006256px;font-style:normal;font-variant:normal;font-weight:bold;font-stretch:normal;line-height:125%;letter-spacing:0px;word-spacing:0px;fill:#666666;fill-opacity:1;stroke:none;font-family:Aharoni;-inkscape-font-specification:Aharoni Bold"><tspan
             x="680.29034"
             y="1486.7386"
             id="tspan5539">O</tspan></text>
        <path
           d="m 750.99653,1428.7179 7.82237,20.3996 11.42351,-8.4245 -5.97154,-14.1025 z"
           id="path5541"
           style="fill:#666666;fill-opacity:1;stroke:none" />
        <path
           d="m 711.27471,1417.7384 21.8286,0.9142 -3.2,-13.8285 -15.31429,-0.1145 z"
           id="path5543"
           style="fill:#666666;fill-opacity:1;stroke:none" />
        <path
           d="m 686.06059,1445.2474 11.12127,-18.8056 -13.69923,-3.7146 -7.33795,13.4421 z"
           id="path5545"
           style="fill:#666666;fill-opacity:1;stroke:none" />
        <path
           d="m 696.7202,1479.987 -10.93037,-18.9172 -9.95797,10.1148 8.11314,12.989 z"
           id="path5547"
           style="fill:#666666;fill-opacity:1;stroke:none" />
        <path
           d="m 732.29696,1487.2179 -21.84454,-0.3736 3.54133,13.745 15.31242,-0.2646 z"
           id="path5549"
           style="fill:#666666;fill-opacity:1;stroke:none" />
        <path
           d="m 756.73006,1464.5668 -12.6097,17.8418 13.35289,4.8133 8.40386,-12.8028 z"
           id="path5551"
           style="fill:#666666;fill-opacity:1;stroke:none" />
      </g>
      <path
         d="m 184.61207,475.62355 0.0293,-34.92699 17.06186,-0.012 -0.18781,20.51589 c 16.00807,1.35449 22.23645,-7.15061 22.53785,-19.99231 l 17.46683,0 c 0.75379,21.03056 -16.17452,34.43656 -31.30351,34.42865 z"
         id="path5553"
         style="fill:url(#linearGradient6277);fill-opacity:1;stroke:none" />
      <path
         d="m 257.36626,440.87266 c -0.31474,2.34976 -0.77062,4.99643 0.3683,10.64237 l -8.88311,8.30208 7.19803,12.71507 11.5085,-3.26085 c 2.85827,2.93258 8.32857,6.83217 13.59177,8.33148 l 3.07432,12.67666 14.59393,-0.0782 2.95502,-12.22977 c 4.61074,-0.72203 10.11351,-4.33189 13.34755,-7.69722 l 12.12123,3.86343 7.36755,-12.68706 -8.49817,-8.29068 c 1.97395,-5.33339 2.01114,-7.56152 1.92125,-13.01946 l -17.08117,-0.29159 c 1.29798,15.55138 -10.40739,22.17536 -18.67544,22.0689 -9.73729,-0.12536 -20.05753,-8.61956 -17.67904,-22.37025 z"
         id="path5555"
         style="fill:url(#linearGradient6279);fill-opacity:1;stroke:none" />
      <path
         d="m 433.32625,475.47098 -0.003,-36.63034 35.83176,0.004 0,11.49802 -18.92574,0 0,11.23869 19.99764,0 0,14.11876 z"
         id="path5557"
         style="fill:url(#linearGradient6281);fill-opacity:1;stroke:none" />
      <path
         d="m 484.08508,475.28902 16.89086,-0.009 0.0166,-35.13549 -16.9034,0 z"
         id="path5559"
         style="fill:url(#linearGradient6283);fill-opacity:1;stroke:none" />
      <path
         d="m 532.05799,475.29542 -27.632,-35.25691 19.88151,0 7.79752,9.96236 0,-9.91528 16.8893,-0.0398 0.008,35.24268 z"
         id="path5561"
         style="fill:url(#linearGradient6285);fill-opacity:1;stroke:none" />
      <path
         d="m 349.48887,440.89902 c -2.03162,27.97392 23.22622,38.57485 35.5489,37.57418 22.44627,-1.22003 33.96134,-18.04559 32.74511,-38.59356 l -33.61321,0.0863 -0.0371,12.6038 13.96837,0.23997 c -0.10465,5.83678 -6.98,14.11634 -19.47221,10.14389 -7.4483,-2.36853 -12.42521,-11.7554 -11.42092,-22.19998 0,0 -17.69394,0.16051 -17.7189,0.14537 z"
         id="path5577"
         style="fill:url(#linearGradient6287);fill-opacity:1;stroke:none" />
      <path
         d="m 183.93617,487.432 88.67814,0"
         id="path5581"
         style="fill:none;stroke:#000000;stroke-width:5.66349649;stroke-linecap:butt;stroke-linejoin:miter;stroke-miterlimit:4;stroke-opacity:1;stroke-dasharray:none" />
      <path
         d="m 313.39317,487.47261 235.90247,0"
         id="path5583"
         style="fill:none;stroke:#000000;stroke-width:5.63047552;stroke-linecap:butt;stroke-linejoin:miter;stroke-miterlimit:4;stroke-opacity:1;stroke-dasharray:none" />
    </g>
    <path
       d="m 786.36603,819.71334 c 54.79907,-3.67118 136.5883,-18.739 174.5875,-32.16418 27.14255,-9.5894 43.18587,-18.69226 57.09757,-32.39663 12.5815,-12.39413 18.1566,-25.11818 19.3582,-44.18052 l 0.9538,-15.13256 -8.2656,9.04494 c -41.99082,45.94961 -169.50163,67.19544 -366.75706,61.10849 -232.90149,-7.18669 -385.9404,-21.95569 -409.6987,-39.53781 -13.6867,-10.12863 -46.1788,-41.41436 -49.3013,-47.47082 l -3.2896,-6.38029 10.4213,1.00923 c 5.7316,0.55507 23.0009,6.1116 38.3762,12.3478 15.3751,6.23623 29.4063,11.86962 31.1803,12.51869 1.774,0.64903 -6.6112,-8.89995 -18.6341,-21.22001 -25.4824,-26.11253 -43.665,-50.8013 -50.2679,-68.25515 -4.0929,-10.81884 -4.5241,-15.09852 -3.4206,-33.94783 2.1531,-36.77613 13.6555,-115.50064 17.4286,-119.28518 2.8577,-2.86638 4.1113,3.50382 5.014,25.48212 0.5356,13.03826 1.176,23.70593 1.4229,23.70593 0.2469,0 4.4069,-3.77652 9.2445,-8.39222 14.4422,-13.77988 31.0041,-20.72506 49.42188,-20.72506 8.5719,0 15.58753,-0.50118 15.59013,-1.11374 0.002,-0.61254 -5.35705,-4.33063 -11.91086,-8.26237 -15.78375,-9.46904 -28.94115,-22.94844 -28.94115,-29.64948 0,-6.8079 9.9086,-12.98133 26.3421,-16.4122 6.80056,-1.41977 12.36456,-3.20333 12.36456,-3.96351 0,-0.76013 -5.08016,-2.55641 -11.28938,-3.9917 -15.12088,-3.49525 -29.48798,-10.86295 -34.41338,-17.64778 -2.7283,-3.75824 -4.4345,-10.91413 -5.282,-22.15233 -0.6883,-9.13045 -1.7271,-16.12393 -2.3081,-15.5411 -0.5812,0.58284 -1.803,9.09552 -2.7153,18.91709 -1.9775,21.2917 -4.7711,29.94263 -22.5269,69.76016 -7.4399,16.68392 -15.1465,35.61017 -17.1258,42.05827 -3.8982,12.69923 -6.8786,60.30329 -8.6962,138.89093 -0.6632,28.67734 -2.6303,56.08629 -5.3792,74.95984 -3.9297,26.97923 -4.0286,30.34434 -1.0603,36.10171 11.4687,22.24472 74.0215,44.53737 154.87926,55.19645 14.50213,1.91171 56.41504,4.24124 95.69151,5.31846 53.29202,1.46157 79.84408,3.20988 111.81933,7.36194 23.06278,2.99493 56.93111,6.91901 75.26297,8.72007 31.85473,3.1298 113.42076,7.88371 124.72158,7.26915 2.95679,-0.1615 16.50409,-1.03772 30.10524,-1.9488 z M 252.71874,344.40496 c 0.1953,-2.3012 4.2,-10.56667 8.8993,-18.36763 10.5353,-17.48884 15.661,-32.14463 21.2965,-60.89083 6.14601,-31.35078 8.60079,-50.28125 10.85559,-83.71223 2.5057,-37.15443 0.3865,-56.90043 -8.33328,-77.64607 -20.34611,-48.4062 -27.98321,-90.37956 -29.43301,-161.762607 -1.0492,-51.662433 0,-62.632543 5.4714,-57.138113 0,0 -18.9502,-26.23824 -18.0784,-26.09177 7.4685,9.82094 7.3256,22.34041 -0.3592,31.5008 -7.1875,8.56758 -18.8592,16.036752 -30.5495,19.549742 -18.4368,5.540382 -57.284,-4.477635 -104.6619,-26.990422 -27.711496,-13.16788 -58.144396,-32.18319 -61.463996,-38.40438 -3.5537,-6.66037 -5.0333,-36.70061 -2.0799,-42.23534 3.3781,-6.33137 11.6577,-6.06493 24.4925,0.78813 l 10.2757,5.48664 -6.5297,-12.97404 c -7.1379,-14.18272 -8.1613,-22.7416 -3.5148,-29.39535 4.9471,-7.08412 7.5771,-20.18024 10.8545,-54.04992 1.891298,-19.54375 4.866298,-37.16381 7.604998,-45.04244 13.004698,-37.40865 23.523198,-90.01426 25.875898,-129.41011 1.0627,-17.79389 3.4393,-37.37521 5.2812,-43.51405 6.1786,-20.59144 21.1402,-27.26115 40.3117,-17.97061 4.8789,2.36432 9.1847,3.9841 9.5681,3.59946 0.3835,-0.38464 -1.7199,-8.79889 -4.6739,-18.69833 -6.4751,-21.69791 -6.7825,-33.22412 -1.1336,-42.51638 8.1114,-13.34359 16.182,-17.83375 121.55911,-67.63211 23.65408,-11.17828 51.71649,-25.09144 62.36084,-30.9181 39.0271,-21.3634 42.8461,-22.94039 65.65727,-27.11198 12.37928,-2.26389 28.31385,-6.14838 35.41017,-8.63222 0,0 38.81326,-16.77755 40.4496,-13.5939 113.79065,129.98207 288.64578,50.26031 342.66188,16.18132 0,0 18.98417,-5.71487 21.21532,-6.76932 -10.23168,-7.45617 -18.86452,-13.21277 -19.18418,-12.79243 -95.25581,68.55163 -280.15024,65.56501 -315.00842,3.81396 -5.88355,-12.91863 -10.52459,-27.19263 -11.49867,-28.24881 -1.01751,-1.10329 -13.16057,-2.40265 -20.33812,0.46137 -14.57072,5.81409 -86.43632,41.86674 -147.96635,74.23001 -23.65412,12.44144 -60.42565,30.56339 -81.71425,40.27101 -87.7306,40.00506 -99.5786,50.23433 -130.3337,112.52737 l -19.6841,39.86923 0.2152,19.11436 c 0.1177,10.51286 -1.301,28.33478 -3.1539,39.60426 -7.883698,47.94775 -41.450896,167.97531 -56.690896,202.71104 -11.1082,25.31856 -12.9161,36.97811 -12.9161,83.30365 l 0,39.34323 19.1687,11.002233 c 28.3304,16.261073 74.404496,37.931698 91.575496,43.071993 15.4827,4.634926 78.5533,15.253151 90.6602,15.263064 l 6.7956,0.0068 1.2677,17.793884 c 1.9219,26.9793396 5.7815,165.854326 7.5676,272.300416 0.8759,52.1954 1.7524,93.01792 1.9476,90.71676 z M 1159.4556,12.02689 c 34.4824,-5.6607404 62.8406,-16.3425009 69.1899,-26.061953 3.4588,-5.294766 3.3158,-15.580529 -0.6447,-46.321123 l -1.2794,-9.930722 -20.7307,9.133572 c -37.0974,16.344486 -61.1401,23.160192 -85.5326,24.247095 -26.1908,1.167034 -56.001,-2.466669 -70.0827,-8.542676 0,0 -40.4501,-6.130282 -37.7597,-3.898165 1.0527,32.62214 2.6204,60.023442 3.4836,60.891842 0.8632,0.86836 29.117,2.04696 62.7862,2.61906 47.7048,0.81057 65.4886,0.33892 80.5701,-2.13693 z"
       id="path5892"
       style="fill:#868686" />
    <text
       x="558.90649"
       y="999.77759"
       id="text6289"
       xml:space="preserve"
       style="font-size:68.7228241px;font-style:normal;font-variant:normal;font-weight:bold;font-stretch:normal;line-height:125%;letter-spacing:0px;word-spacing:0px;fill:#ffffff;fill-opacity:1;stroke:none;font-family:Aharoni;-inkscape-font-specification:Aharoni Bold"><tspan
         x="558.90649"
         y="999.77759"
         id="tspan6291">BACK</tspan></text>
  </g>
</svg>
